<?xml version="1.0" standalone="no"?>
<!DOCTYPE svg PUBLIC "-//W3C//DTD SVG 20010904//EN"
 "http://www.w3.org/TR/2001/REC-SVG-20010904/DTD/svg10.dtd">
<svg version="1.0" xmlns="http://www.w3.org/2000/svg"
 width="225.000000pt" height="225.000000pt" viewBox="0 0 225.000000 225.000000"
 preserveAspectRatio="xMidYMid meet">
<metadata>
Created by potrace 1.10, written by Peter Selinger 2001-2011
</metadata>
<g transform="translate(0.000000,225.000000) scale(0.100000,-0.100000)"
fill="#000000" stroke="none">
<path d="M880 2054 c-346 -29 -411 -48 -522 -152 -130 -122 -163 -282 -162
-787 1 -503 34 -652 172 -777 126 -114 276 -142 752 -143 413 0 589 24 698 94
193 126 237 280 237 836 0 379 -24 574 -82 674 -54 93 -148 172 -243 206 -79
28 -285 46 -550 50 -140 1 -275 1 -300 -1z m530 -39 c105 -10 293 -36 302 -41
5 -3 4 -12 -3 -20 -10 -12 -7 -12 16 0 29 15 50 12 40 -4 -3 -5 5 -12 19 -16
13 -3 32 -14 42 -25 9 -10 22 -16 28 -12 6 4 4 -2 -4 -12 -12 -15 -12 -17 -1
-10 11 6 13 4 8 -8 -4 -11 -2 -14 8 -10 8 3 12 10 8 16 -3 6 -1 7 6 3 6 -4 9
-12 6 -17 -4 -5 -3 -9 2 -9 4 0 21 -17 37 -37 16 -20 24 -33 18 -29 -7 4 -12
2 -12 -4 0 -6 6 -13 14 -16 8 -3 18 -19 21 -35 4 -16 11 -29 16 -29 6 0 8 -4
5 -9 -6 -9 7 -123 23 -208 5 -28 5 -40 -2 -36 -7 4 -7 0 -1 -13 5 -10 9 -58 9
-106 0 -47 2 -82 5 -78 7 11 4 -246 -4 -360 -12 -165 -27 -284 -42 -328 -8
-24 -11 -48 -8 -54 4 -6 2 -8 -3 -5 -10 7 -26 -16 -28 -38 -1 -19 -44 -67 -54
-61 -5 3 -12 -1 -15 -10 -3 -8 -2 -13 2 -10 5 3 9 -1 9 -8 0 -8 -7 -12 -15 -8
-10 3 -13 1 -8 -6 4 -7 1 -12 -7 -12 -7 0 -24 -12 -38 -26 -14 -15 -31 -23
-42 -20 -13 3 -17 0 -13 -10 4 -9 -2 -13 -17 -13 -12 1 -33 -2 -47 -6 -58 -16
-130 -25 -207 -27 -45 -1 -80 -5 -77 -9 2 -4 -13 -7 -34 -6 -20 0 -98 -2 -174
-5 -75 -4 -138 -4 -141 -1 -3 3 -28 7 -54 8 -35 3 -43 1 -28 -6 15 -7 13 -8
-11 -3 -18 3 -55 5 -83 6 -28 0 -49 4 -46 8 3 5 -9 7 -27 4 -18 -3 -89 5 -158
16 -69 11 -133 20 -143 21 -9 0 -15 4 -12 9 3 5 -6 12 -20 16 -14 3 -22 11
-18 17 4 6 0 8 -10 4 -10 -3 -17 -2 -17 4 0 5 -11 14 -25 19 -22 8 -24 13 -15
29 12 24 -5 40 -23 22 -9 -9 -7 -11 8 -6 16 5 17 5 5 -3 -19 -14 -23 -11 -46
37 -10 23 -22 41 -26 41 -5 0 -8 11 -8 25 0 14 -4 25 -10 25 -5 0 -10 7 -10
15 0 8 -3 15 -7 15 -5 0 -8 10 -9 23 0 12 -6 67 -13 122 -44 355 -29 831 31
1020 13 39 21 75 19 80 -1 6 0 7 4 3 4 -4 22 12 40 35 18 23 38 41 44 39 7 -1
10 2 6 7 -3 6 12 22 34 37 23 14 38 30 35 35 -3 5 1 7 8 5 7 -3 27 -7 43 -10
l30 -6 -25 14 -25 15 30 -2 c20 -1 29 2 27 11 -1 8 1 11 5 9 5 -3 55 1 113 9
58 7 156 16 219 19 63 2 117 7 120 11 6 6 308 -3 401 -11z"/>
<path d="M1233 1582 c-19 -6 -76 -48 -107 -79 -185 -186 -306 -315 -306 -328
0 -9 -5 -13 -11 -9 -7 4 -7 -1 1 -16 9 -17 9 -21 0 -15 -30 19 22 -97 55 -123
14 -11 25 -25 25 -32 0 -6 3 -10 8 -8 4 2 25 -15 47 -36 22 -22 34 -36 26 -31
-9 5 -12 4 -7 -3 4 -6 13 -9 22 -5 8 3 14 1 12 -4 -2 -6 42 -54 97 -107 146
-141 149 -144 142 -125 -5 15 -2 15 24 6 24 -10 31 -8 42 7 10 13 20 17 33 12
10 -4 15 -4 11 0 -3 4 7 24 24 46 26 32 30 44 25 72 -4 19 -15 45 -26 59 -11
14 -17 32 -14 40 3 8 1 18 -5 22 -7 4 -8 -1 -4 -12 5 -14 1 -13 -20 6 -14 13
-23 29 -21 35 3 7 -2 13 -10 13 -8 0 -12 -5 -9 -10 4 -6 1 -7 -6 -3 -7 5 -10
14 -7 22 3 7 0 11 -7 9 -7 -3 -20 7 -30 20 -17 23 -17 24 0 18 15 -6 16 -5 3
9 -8 9 -17 16 -20 16 -20 -1 -30 3 -26 11 3 5 -2 17 -12 28 -9 10 -13 13 -8 6
14 -22 3 -23 -23 -2 -14 11 -18 19 -10 19 11 0 12 2 1 9 -10 6 -7 12 12 24 14
10 23 23 20 30 -2 7 7 19 20 27 14 7 23 16 21 21 -3 4 11 17 30 29 19 12 35
25 35 28 0 4 14 15 31 24 17 10 27 23 24 29 -4 6 2 17 14 25 26 19 45 83 37
127 -4 22 -20 47 -47 71 -40 35 -61 41 -106 28z m70 -43 c35 -18 57 -51 57
-88 0 -31 -15 -49 -145 -180 l-144 -146 144 -146 c116 -116 145 -151 145 -173
0 -65 -59 -116 -117 -101 -34 8 -376 345 -394 386 -6 16 -8 41 -4 56 7 30 316
351 370 384 34 22 57 24 88 8z"/>
</g>
</svg>
